# xmcd
#
# Track frame offsets:
#	150
#	22877
#	45557
#	66120
#	85980
#	100725
#	119930
#	133270
#	147820
#	164587
#	176760
#
# Disc length: 2439 seconds
# Revision: 1
# Processed by: cddbd v1.5.2PL0 Copyright (c) Steve Scherf et al.
# Submitted via: dBpowerAMP V12.0
#
DISCID=9d09850b
DTITLE=Cream - Wheels Of Fire [SHM UICY-76024/5]
DYEAR=1968
DGENRE=Blues Rock
TTITLE0=White Room
TTITLE1=Sitting On Top Of The World
TTITLE2=Passing The Time
TTITLE3=As You Said
TTITLE4=Pressed Rat And Warthog
TTITLE5=Politician
TTITLE6=Those Were The Days
TTITLE7=Born Under A Bad Sign
TTITLE8=Deserted Cities Of The Heart
TTITLE9=Anyone For Tennis
TTITLE10=Falstaff Beef Commerical
EXTD=
EXTT0=
EXTT1=
EXTT2=
EXTT3=
EXTT4=
EXTT5=
EXTT6=
EXTT7=
EXTT8=
EXTT9=
EXTT10=
PLAYORDER=
